<svg width="132" height="24" viewBox="0 0 132 24" fill="none" xmlns="http://www.w3.org/2000/svg">
<path d="M36 17.25L29.8125 21L31.4531 13.9688L26.0156 9.23438L33.1875 8.625L36 2.01562L38.8125 8.625L45.9844 9.23438L40.5469 13.9688L42.1875 21L36 17.25Z" fill="#E0B420"/>
<path d="M84 17.25L77.8125 21L79.4531 13.9688L74.0156 9.23438L81.1875 8.625L84 2.01562L86.8125 8.625L93.9844 9.23438L88.5469 13.9688L90.1875 21L84 17.25Z" fill="#E0B420"/>
<path d="M60 17.25L53.8125 21L55.4531 13.9688L50.0156 9.23438L57.1875 8.625L60 2.01562L62.8125 8.625L69.9844 9.23438L64.5469 13.9688L66.1875 21L60 17.25Z" fill="#E0B420"/>
<path d="M12 17.25L5.8125 21L7.45312 13.9688L2.01562 9.23438L9.1875 8.625L12 2.01562L14.8125 8.625L21.9844 9.23438L16.5469 13.9688L18.1875 21L12 17.25Z" fill="#E0B420"/>
<path d="M108 17.25L101.812 21L103.453 13.9688L98.0156 9.23438L105.188 8.625L108 2.01562L110.812 8.625L117.984 9.23438L112.547 13.9688L114.188 21L108 17.25Z" fill="#E0B420"/>
</svg>
